<?xml version="1.0" encoding="utf-8"?>
<!-- Generator: Adobe Illustrator 21.0.0, SVG Export Plug-In . SVG Version: 6.00 Build 0)  -->
<svg version="1.1" id="Layer_1" xmlns="http://www.w3.org/2000/svg" xmlns:xlink="http://www.w3.org/1999/xlink" x="0px" y="0px"
	 viewBox="0 0 50 149.8" style="enable-background:new 0 0 50 149.8;" xml:space="preserve">
<style type="text/css">
	.st0{fill:#5D8FC8;}
</style>
<path class="st0" d="M42.7,5H7.3C6,5,5,6,5,7.3v35.4C5,44,6,45,7.3,45h35.4c1.3,0,2.3-1,2.3-2.3V7.3C45,6,44,5,42.7,5z M39,27.4
	h-5.5v14.7h-5.6V27.4H24v-5.3h3.9c0,0,0-2.2,0-4.5c0-3.6,2.3-6.8,7.6-6.8c2.1,0,3.7,0.2,3.7,0.2L39,16c0,0-1.6,0-3.4,0
	c-1.9,0-2.2,0.9-2.2,2.3c0,0.2,0,0.2,0,0.2c0,0.4,0,1.4,0,3.6h5.7L39,27.4z"/>
<path class="st0" d="M42.7,55H7.3C6,55,5,56,5,57.3v35.4C5,94,6,95,7.3,95h35.4c1.3,0,2.3-1,2.3-2.3V57.3C45,56,44,55,42.7,55z
	 M35.6,69.6c0,0.2,0,0.5,0,0.7c0,7.2-5.5,15.6-15.6,15.6c-3.1,0-6-0.9-8.4-2.5c0.4,0.1,0.9,0.1,1.3,0.1c2.6,0,4.9-0.9,6.8-2.3
	c-2.4,0-4.4-1.6-5.1-3.8c0.3,0.1,0.7,0.1,1,0.1c0.5,0,1-0.1,1.4-0.2c-2.5-0.5-4.4-2.7-4.4-5.4c0,0,0,0,0-0.1
	c0.7,0.4,1.6,0.7,2.5,0.7c-1.5-1-2.4-2.7-2.4-4.6c0-1,0.3-1.9,0.7-2.8c2.7,3.3,6.7,5.5,11.3,5.7c-0.1-0.4-0.1-0.8-0.1-1.2
	c0-3,2.4-5.5,5.5-5.5c1.6,0,3,0.7,4,1.7c1.2-0.2,2.4-0.7,3.5-1.3c-0.4,1.3-1.3,2.3-2.4,3c1.1-0.1,2.2-0.4,3.1-0.9
	C37.6,67.8,36.7,68.8,35.6,69.6z"/>
<path class="st0" d="M40,105H10c-2.8,0-5,2.2-5,5v30c0,2.8,2.2,5,5,5h30c2.8,0,5-2.2,5-5v-30C45,107.1,42.8,105,40,105z M25,117.1
	c4.4,0,8,3.5,8,7.8c0,4.3-3.6,7.8-8,7.8c-4.4,0-8-3.5-8-7.8C17,120.6,20.6,117.1,25,117.1z M40,138.7c0,0.9-0.4,1.2-1.2,1.2H11.2
	c-0.9,0-1.2-0.4-1.2-1.2v-17.5l3.1,0.7c-0.3,1.1-0.5,2.2-0.5,3.4c0,6.6,5.6,12,12.4,12c6.9,0,12.4-5.4,12.4-12
	c0-1.2-0.2-2.3-0.5-3.4l3.1-0.7V138.7z M40,116.2c0,0.7-0.6,1.2-1.2,1.2h-5c-0.7,0-1.2-0.6-1.2-1.2v-5c0-0.7,0.6-1.2,1.2-1.2h5
	c0.7,0,1.2,0.6,1.2,1.2V116.2z"/>
</svg>
